<svg width="1440" height="219" viewBox="0 0 1440 219" fill="none" xmlns="http://www.w3.org/2000/svg">
<path fill-rule="evenodd" clip-rule="evenodd" d="M-9.58538 0H62.8292V72.4146H-9.58538V0ZM-8.16549 1.41989V70.9947H61.4093V1.41989H-8.16549Z" fill="#FFC82D" fill-opacity="0.09"/>
<path fill-rule="evenodd" clip-rule="evenodd" d="M60.8292 0H133.244V72.4146H60.8292V0ZM62.2491 1.41989V70.9947H131.824V1.41989H62.2491Z" fill="#FFC82D" fill-opacity="0.09"/>
<path fill-rule="evenodd" clip-rule="evenodd" d="M131.244 0H203.658V72.4146H131.244V0ZM132.664 1.41989V70.9947H202.239V1.41989H132.664Z" fill="#FFC82D" fill-opacity="0.09"/>
<path fill-rule="evenodd" clip-rule="evenodd" d="M201.658 0H274.073V72.4146H201.658V0ZM203.078 1.41989V70.9947H272.653V1.41989H203.078Z" fill="#FFC82D" fill-opacity="0.09"/>
<path fill-rule="evenodd" clip-rule="evenodd" d="M272.073 0H344.488V72.4146H272.073V0ZM273.493 1.41989V70.9947H343.068V1.41989H273.493Z" fill="#FFC82D" fill-opacity="0.09"/>
<path fill-rule="evenodd" clip-rule="evenodd" d="M342.488 0H414.902V72.4146H342.488V0ZM343.908 1.41989V70.9947H413.482V1.41989H343.908Z" fill="#FFC82D" fill-opacity="0.09"/>
<path fill-rule="evenodd" clip-rule="evenodd" d="M412.902 0H485.317V72.4146H412.902V0ZM414.322 1.41989V70.9947H483.897V1.41989H414.322Z" fill="#FFC82D" fill-opacity="0.09"/>
<path fill-rule="evenodd" clip-rule="evenodd" d="M483.317 0H555.732V72.4146H483.317V0ZM484.737 1.41989V70.9947H554.312V1.41989H484.737Z" fill="#FFC82D" fill-opacity="0.09"/>
<path fill-rule="evenodd" clip-rule="evenodd" d="M553.732 0H626.146V72.4146H553.732V0ZM555.151 1.41989V70.9947H624.726V1.41989H555.151Z" fill="#FFC82D" fill-opacity="0.09"/>
<path fill-rule="evenodd" clip-rule="evenodd" d="M624.146 0H696.561V72.4146H624.146V0ZM625.566 1.41989V70.9947H695.141V1.41989H625.566Z" fill="#FFC82D" fill-opacity="0.09"/>
<path fill-rule="evenodd" clip-rule="evenodd" d="M694.561 0H766.975V72.4146H694.561V0ZM695.981 1.41989V70.9947H765.556V1.41989H695.981Z" fill="#FFC82D" fill-opacity="0.09"/>
<path fill-rule="evenodd" clip-rule="evenodd" d="M764.975 0H837.39V72.4146H764.975V0ZM766.395 1.41989V70.9947H835.97V1.41989H766.395Z" fill="#FFC82D" fill-opacity="0.09"/>
<path fill-rule="evenodd" clip-rule="evenodd" d="M835.39 0H907.805V72.4146H835.39V0ZM836.81 1.41989V70.9947H906.385V1.41989H836.81Z" fill="#FFC82D" fill-opacity="0.09"/>
<path fill-rule="evenodd" clip-rule="evenodd" d="M905.805 0H978.219V72.4146H905.805V0ZM907.225 1.41989V70.9947H976.799V1.41989H907.225Z" fill="#FFC82D" fill-opacity="0.09"/>
<path fill-rule="evenodd" clip-rule="evenodd" d="M976.219 0H1048.63V72.4146H976.219V0ZM977.639 1.41989V70.9947H1047.21V1.41989H977.639Z" fill="#FFC82D" fill-opacity="0.09"/>
<path fill-rule="evenodd" clip-rule="evenodd" d="M1046.63 0H1119.05V72.4146H1046.63V0ZM1048.05 1.41989V70.9947H1117.63V1.41989H1048.05Z" fill="#FFC82D" fill-opacity="0.09"/>
<path fill-rule="evenodd" clip-rule="evenodd" d="M1117.05 0H1189.46V72.4146H1117.05V0ZM1118.47 1.41989V70.9947H1188.04V1.41989H1118.47Z" fill="#FFC82D" fill-opacity="0.09"/>
<path fill-rule="evenodd" clip-rule="evenodd" d="M1187.46 0H1259.88V72.4146H1187.46V0ZM1188.88 1.41989V70.9947H1258.46V1.41989H1188.88Z" fill="#FFC82D" fill-opacity="0.09"/>
<path fill-rule="evenodd" clip-rule="evenodd" d="M1257.88 0H1330.29V72.4146H1257.88V0ZM1259.3 1.41989V70.9947H1328.87V1.41989H1259.3Z" fill="#FFC82D" fill-opacity="0.09"/>
<path fill-rule="evenodd" clip-rule="evenodd" d="M1328.29 0H1400.71V72.4146H1328.29V0ZM1329.71 1.41989V70.9947H1399.29V1.41989H1329.71Z" fill="#FFC82D" fill-opacity="0.09"/>
<path fill-rule="evenodd" clip-rule="evenodd" d="M-58 82H14.4146V154.415H-58V82ZM-56.5801 83.4199V152.995H12.9947V83.4199H-56.5801Z" fill="#FFC82D" fill-opacity="0.09"/>
<path fill-rule="evenodd" clip-rule="evenodd" d="M14.4146 82H86.8292V154.415H14.4146V82ZM15.8345 83.4199V152.995H85.4093V83.4199H15.8345Z" fill="#FFC82D" fill-opacity="0.09"/>
<path d="M86.8292 82H157.824V152.995H86.8292V82Z" fill="#F59E0B" fill-opacity="0.05"/>
<path fill-rule="evenodd" clip-rule="evenodd" d="M157.824 82H230.239V154.415H157.824V82ZM159.244 83.4199V152.995H228.819V83.4199H159.244Z" fill="#FFC82D" fill-opacity="0.09"/>
<path fill-rule="evenodd" clip-rule="evenodd" d="M230.239 82H302.653V154.415H230.239V82ZM231.658 83.4199V152.995H301.233V83.4199H231.658Z" fill="#FFC82D" fill-opacity="0.09"/>
<path fill-rule="evenodd" clip-rule="evenodd" d="M302.653 82H375.068V154.415H302.653V82ZM304.073 83.4199V152.995H373.648V83.4199H304.073Z" fill="#FFC82D" fill-opacity="0.09"/>
<path fill-rule="evenodd" clip-rule="evenodd" d="M375.068 82H447.482V154.415H375.068V82ZM376.488 83.4199V152.995H446.063V83.4199H376.488Z" fill="#FFC82D" fill-opacity="0.09"/>
<path fill-rule="evenodd" clip-rule="evenodd" d="M447.482 82H519.897V154.415H447.482V82ZM448.902 83.4199V152.995H518.477V83.4199H448.902Z" fill="#FFC82D" fill-opacity="0.09"/>
<path fill-rule="evenodd" clip-rule="evenodd" d="M519.897 82H592.312V154.415H519.897V82ZM521.317 83.4199V152.995H590.892V83.4199H521.317Z" fill="#FFC82D" fill-opacity="0.09"/>
<path fill-rule="evenodd" clip-rule="evenodd" d="M592.312 82H664.726V154.415H592.312V82ZM593.732 83.4199V152.995H663.306V83.4199H593.732Z" fill="#FFC82D" fill-opacity="0.09"/>
<path d="M664.726 82H735.721V152.995H664.726V82Z" fill="#F59E0B" fill-opacity="0.05"/>
<path fill-rule="evenodd" clip-rule="evenodd" d="M735.721 82H808.136V154.415H735.721V82ZM737.141 83.4199V152.995H806.716V83.4199H737.141Z" fill="#FFC82D" fill-opacity="0.09"/>
<path fill-rule="evenodd" clip-rule="evenodd" d="M808.136 82H880.55V154.415H808.136V82ZM809.556 83.4199V152.995H879.13V83.4199H809.556Z" fill="#FFC82D" fill-opacity="0.09"/>
<path fill-rule="evenodd" clip-rule="evenodd" d="M880.55 82H952.965V154.415H880.55V82ZM881.97 83.4199V152.995H951.545V83.4199H881.97Z" fill="#FFC82D" fill-opacity="0.09"/>
<path fill-rule="evenodd" clip-rule="evenodd" d="M952.965 82H1025.38V154.415H952.965V82ZM954.385 83.4199V152.995H1023.96V83.4199H954.385Z" fill="#FFC82D" fill-opacity="0.09"/>
<path fill-rule="evenodd" clip-rule="evenodd" d="M1025.38 82H1097.79V154.415H1025.38V82ZM1026.8 83.4199V152.995H1096.37V83.4199H1026.8Z" fill="#FFC82D" fill-opacity="0.09"/>
<path fill-rule="evenodd" clip-rule="evenodd" d="M1097.79 82H1170.21V154.415H1097.79V82ZM1099.21 83.4199V152.995H1168.79V83.4199H1099.21Z" fill="#FFC82D" fill-opacity="0.09"/>
<path fill-rule="evenodd" clip-rule="evenodd" d="M1170.21 82H1242.62V154.415H1170.21V82ZM1171.63 83.4199V152.995H1241.2V83.4199H1171.63Z" fill="#FFC82D" fill-opacity="0.09"/>
<path fill-rule="evenodd" clip-rule="evenodd" d="M1242.62 82H1315.04V154.415H1242.62V82ZM1244.04 83.4199V152.995H1313.62V83.4199H1244.04Z" fill="#FFC82D" fill-opacity="0.09"/>
<path fill-rule="evenodd" clip-rule="evenodd" d="M1315.04 82H1387.45V154.415H1315.04V82ZM1316.46 83.4199V152.995H1386.03V83.4199H1316.46Z" fill="#FFC82D" fill-opacity="0.09"/>
<path fill-rule="evenodd" clip-rule="evenodd" d="M1387.45 82H1459.87V154.415H1387.45V82ZM1388.87 83.4199V152.995H1458.45V83.4199H1388.87Z" fill="#FFC82D" fill-opacity="0.09"/>
<path fill-rule="evenodd" clip-rule="evenodd" d="M-27.5854 164H44.8292V236.415H-27.5854V164ZM-26.1655 165.42V234.995H43.4093V165.42H-26.1655Z" fill="#FFC82D" fill-opacity="0.09"/>
<path fill-rule="evenodd" clip-rule="evenodd" d="M44.8292 164H117.244V236.415H44.8292V164ZM46.2491 165.42V234.995H115.824V165.42H46.2491Z" fill="#FFC82D" fill-opacity="0.09"/>
<path fill-rule="evenodd" clip-rule="evenodd" d="M117.244 164H189.658V236.415H117.244V164ZM118.664 165.42V234.995H188.239V165.42H118.664Z" fill="#FFC82D" fill-opacity="0.09"/>
<path fill-rule="evenodd" clip-rule="evenodd" d="M189.658 164H262.073V236.415H189.658V164ZM191.078 165.42V234.995H260.653V165.42H191.078Z" fill="#FFC82D" fill-opacity="0.09"/>
<path fill-rule="evenodd" clip-rule="evenodd" d="M262.073 164H334.488V236.415H262.073V164ZM263.493 165.42V234.995H333.068V165.42H263.493Z" fill="#FFC82D" fill-opacity="0.09"/>
<path fill-rule="evenodd" clip-rule="evenodd" d="M334.488 164H406.902V236.415H334.488V164ZM335.908 165.42V234.995H405.482V165.42H335.908Z" fill="#FFC82D" fill-opacity="0.09"/>
<path fill-rule="evenodd" clip-rule="evenodd" d="M406.902 164H479.317V236.415H406.902V164ZM408.322 165.42V234.995H477.897V165.42H408.322Z" fill="#FFC82D" fill-opacity="0.09"/>
<path fill-rule="evenodd" clip-rule="evenodd" d="M479.317 164H551.732V236.415H479.317V164ZM480.737 165.42V234.995H550.312V165.42H480.737Z" fill="#FFC82D" fill-opacity="0.09"/>
<path fill-rule="evenodd" clip-rule="evenodd" d="M551.732 164H624.146V236.415H551.732V164ZM553.151 165.42V234.995H622.726V165.42H553.151Z" fill="#FFC82D" fill-opacity="0.09"/>
<path fill-rule="evenodd" clip-rule="evenodd" d="M624.146 164H696.561V236.415H624.146V164ZM625.566 165.42V234.995H695.141V165.42H625.566Z" fill="#FFC82D" fill-opacity="0.09"/>
<path fill-rule="evenodd" clip-rule="evenodd" d="M696.561 164H768.975V236.415H696.561V164ZM697.981 165.42V234.995H767.556V165.42H697.981Z" fill="#FFC82D" fill-opacity="0.09"/>
<path fill-rule="evenodd" clip-rule="evenodd" d="M768.975 164H841.39V236.415H768.975V164ZM770.395 165.42V234.995H839.97V165.42H770.395Z" fill="#FFC82D" fill-opacity="0.09"/>
<path fill-rule="evenodd" clip-rule="evenodd" d="M841.39 164H913.805V236.415H841.39V164ZM842.81 165.42V234.995H912.385V165.42H842.81Z" fill="#FFC82D" fill-opacity="0.09"/>
<path fill-rule="evenodd" clip-rule="evenodd" d="M913.805 164H986.219V236.415H913.805V164ZM915.225 165.42V234.995H984.799V165.42H915.225Z" fill="#FFC82D" fill-opacity="0.09"/>
<path fill-rule="evenodd" clip-rule="evenodd" d="M986.219 164H1058.63V236.415H986.219V164ZM987.639 165.42V234.995H1057.21V165.42H987.639Z" fill="#FFC82D" fill-opacity="0.09"/>
<path d="M1058.63 164H1129.63V234.995H1058.63V164Z" fill="#F59E0B" fill-opacity="0.05"/>
<path fill-rule="evenodd" clip-rule="evenodd" d="M1129.63 164H1202.04V236.415H1129.63V164ZM1131.05 165.42V234.995H1200.62V165.42H1131.05Z" fill="#FFC82D" fill-opacity="0.09"/>
<path fill-rule="evenodd" clip-rule="evenodd" d="M1202.04 164H1274.46V236.415H1202.04V164ZM1203.46 165.42V234.995H1273.04V165.42H1203.46Z" fill="#FFC82D" fill-opacity="0.09"/>
<path fill-rule="evenodd" clip-rule="evenodd" d="M1274.46 164H1346.87V236.415H1274.46V164ZM1275.88 165.42V234.995H1345.45V165.42H1275.88Z" fill="#FFC82D" fill-opacity="0.09"/>
<path fill-rule="evenodd" clip-rule="evenodd" d="M1346.87 164H1419.29V236.415H1346.87V164ZM1348.29 165.42V234.995H1417.87V165.42H1348.29Z" fill="#FFC82D" fill-opacity="0.09"/>
<path fill-rule="evenodd" clip-rule="evenodd" d="M1419.29 164H1491.7V236.415H1419.29V164ZM1420.71 165.42V234.995H1490.28V165.42H1420.71Z" fill="#FFC82D" fill-opacity="0.09"/>
</svg>
